<?xml version="1.0" encoding="iso-8859-1"?>
<!-- Uploaded to: SVG Repo, www.svgrepo.com, Generator: SVG Repo Mixer Tools -->
<svg height="800px" width="800px" version="1.1" id="Layer_1" xmlns="http://www.w3.org/2000/svg" xmlns:xlink="http://www.w3.org/1999/xlink" 
	 viewBox="0 0 512 512" xml:space="preserve">
<path style="fill:#FEE570;" d="M258.824,322.671h-5.647c-110.925,0-206.893,70.947-235.105,171.091
	C15.493,502.914,22.381,512,31.889,512h448.164c9.537,0,16.448-9.115,13.86-18.293C465.68,393.592,369.728,322.671,258.824,322.671z
	"/>
<path style="fill:#E8CB4F;" d="M258.824,322.671h-5.647c-3.139,0-6.264,0.069-9.379,0.181
	C357.288,326.96,453.281,405.271,473.841,512l0,0h6.27c9.508,0,16.395-9.086,13.818-18.238
	C465.716,393.618,369.749,322.671,258.824,322.671z"/>
<circle style="fill:#C9E7F8;" cx="256.006" cy="221.424" r="221.424"/>
<path style="fill:#A2D8F4;" d="M256,0c-4.111,0-8.193,0.121-12.249,0.343c116.59,6.358,209.174,102.902,209.174,221.079
	s-92.583,214.721-209.174,221.079c4.055,0.221,8.138,0.343,12.249,0.343c122.288,0,221.422-99.134,221.422-221.422
	C477.421,99.134,378.287,0,256,0z"/>
<path style="fill:#FEE570;" d="M359.299,86.82l-0.144-0.223c-11.305-17.382-27.921-30.648-47.374-37.822l-18.211-6.716
	c-24.247-8.942-50.89-8.942-75.137,0l-18.212,6.717c-19.454,7.175-36.07,20.441-47.374,37.822l-0.144,0.222
	c-15.284,23.502-22.856,51.188-21.656,79.197l4.311,100.691c0.966,22.559,5.604,44.811,13.732,65.878l4.459,11.557
	c8.169,21.17,21.898,39.745,39.74,53.765l0,0c13.797,10.841,30.836,16.734,48.382,16.734h28.661
	c17.546,0,34.585-5.893,48.382-16.734l0,0c17.843-14.019,31.573-32.593,39.74-53.765l4.459-11.557
	c8.128-21.067,12.766-43.318,13.732-65.878l4.311-100.691C382.155,138.008,374.585,110.322,359.299,86.82z"/>
<path style="fill:#F7DA61;" d="M82.714,127.477l-6.194,8.812c-11.352,16.151-17.445,35.411-17.445,55.153l0,0
	c0,25.026,9.782,49.061,27.259,66.975l0.918,0.941c11.794,12.088,19.832,27.335,23.144,43.894l1.79,8.95
	c1.01,5.047,7.267,6.889,10.85,3.194l0,0c18.298-18.871,28.532-44.123,28.532-70.409v-9.496c0-7.176-0.764-14.332-2.278-21.345
	l-10.009-46.356c-0.194-0.897-0.376-1.794-0.546-2.694c-6.704-35.296,5.97-71.504,32.441-95.794l15.907-14.597
	C187.082,54.704,126.369,74.956,82.714,127.477z"/>
<path style="fill:#E8CB4F;" d="M136.187,80.544c-19.136,23.498-27.593,54.353-21.858,84.55c0.171,0.899,0.353,1.796,0.546,2.694
	l10.009,46.356c1.514,7.014,2.278,14.17,2.278,21.345v9.496c0,20.21-6.07,39.798-17.185,56.356c0.142,0.636,0.29,1.27,0.418,1.91
	l1.79,8.95c1.01,5.047,7.267,6.888,10.85,3.194c18.298-18.871,28.532-44.123,28.532-70.409v-9.496
	c0-7.176-0.764-14.332-2.278-21.345l-10.009-46.356c-0.194-0.897-0.376-1.794-0.546-2.694c-6.704-35.296,5.969-71.504,32.441-95.794
	l15.907-14.596C187.082,54.704,164.066,62.385,136.187,80.544z"/>
<path style="fill:#F7DA61;" d="M429.286,127.477l6.194,8.812c11.352,16.151,17.445,35.411,17.445,55.153l0,0
	c0,25.026-9.782,49.061-27.259,66.975l-0.918,0.941c-11.794,12.088-19.832,27.335-23.144,43.894l-1.79,8.95
	c-1.01,5.047-7.267,6.889-10.85,3.194l0,0c-18.298-18.871-28.532-44.123-28.532-70.409v-9.496c0-7.176,0.764-14.332,2.278-21.345
	l10.009-46.356c0.194-0.897,0.376-1.794,0.546-2.694c6.704-35.296-5.97-71.504-32.442-95.794l-15.907-14.597
	C324.917,54.704,385.63,74.956,429.286,127.477z"/>
<path style="fill:#E8CB4F;" d="M435.48,136.289l-6.194-8.812C385.63,74.956,324.917,54.704,324.917,54.704l15.907,14.596
	c3.825,3.51,7.352,7.275,10.584,11.244c17.402,11.335,36.696,26.748,53.473,46.933l6.194,8.812
	c11.352,16.151,17.445,35.411,17.445,55.153l0,0c0,25.026-9.782,49.061-27.259,66.975l-0.918,0.941
	c-11.338,11.621-19.192,26.165-22.727,41.985c3.341,4.977,7.118,9.692,11.347,14.054l0,0c3.583,3.694,9.84,1.852,10.85-3.194
	l1.79-8.95c3.312-16.56,11.351-31.806,23.145-43.895l0.918-0.941c17.476-17.914,27.258-41.949,27.258-66.975l0,0
	C452.924,171.7,446.832,152.44,435.48,136.289z"/>
<g>
	<path style="fill:#EACE5C;" d="M123.356,512c0-35.043,21.161-46.755,22.201-47.308c3.943-2.03,5.516-6.866,3.512-10.831
		c-2.012-3.983-6.875-5.582-10.859-3.567c-1.266,0.64-31.018,16.2-31.018,61.706L123.356,512L123.356,512z"/>
	<path style="fill:#EACE5C;" d="M373.789,450.294c-3.984-2.012-8.878-0.433-10.891,3.551c-2.013,3.984-0.449,8.829,3.535,10.842
		c0.907,0.48,22.21,12.153,22.21,47.313h16.165C404.808,466.494,375.057,450.934,373.789,450.294z"/>
</g>
<g>
	<path style="fill:#EAB200;" d="M305.224,378.237c-18.92,1.595-32.191-4.925-39.993-10.672c-4.154-3.061-6.537-7.494-6.537-12.163
		v-19.859c0-1.488-1.206-2.694-2.694-2.694c-1.488,0-2.694,1.206-2.694,2.694v19.859c0,4.669-2.383,9.102-6.537,12.163
		c-7.8,5.747-21.071,12.265-39.994,10.672c-1.479-0.113-2.785,0.976-2.911,2.459c-0.125,1.483,0.976,2.786,2.459,2.911
		c2.132,0.18,4.194,0.263,6.195,0.263c17.331,0,29.786-6.324,37.446-11.966c2.534-1.866,4.567-4.137,6.036-6.661
		c1.469,2.524,3.502,4.794,6.037,6.661c7.659,5.644,20.112,11.966,37.445,11.966c1.999,0,4.064-0.084,6.195-0.263
		c1.482-0.125,2.582-1.428,2.458-2.911C308.01,379.213,306.698,378.114,305.224,378.237z"/>
	<path style="fill:#EAB200;" d="M209.986,300.785l37.773,37.773c4.552,4.552,11.931,4.552,16.483,0l37.773-37.773
		c7.342-7.342,2.142-19.897-8.241-19.897h-75.545C207.843,280.889,202.644,293.443,209.986,300.785z"/>
</g>
<path style="fill:#D8A601;" d="M293.773,280.889H256v61.082c2.983,0,5.966-1.138,8.242-3.414l37.773-37.773
	C309.356,293.443,304.156,280.889,293.773,280.889z"/>
<g>
	<path style="fill:#4D4D4D;" d="M212.153,207.177h-7.608c-4.464,0-8.082-3.619-8.082-8.082c0-4.464,3.619-8.082,8.082-8.082h7.608
		c4.464,0,8.082,3.619,8.082,8.082C220.235,203.558,216.616,207.177,212.153,207.177z"/>
	<path style="fill:#4D4D4D;" d="M318.663,207.177h-7.609c-4.465,0-8.082-3.619-8.082-8.082c0-4.464,3.618-8.082,8.082-8.082h7.609
		c4.465,0,8.082,3.619,8.082,8.082C326.746,203.558,323.127,207.177,318.663,207.177z"/>
</g>
</svg>