<?xml version="1.0" encoding="iso-8859-1"?>
<!-- Uploaded to: SVG Repo, www.svgrepo.com, Generator: SVG Repo Mixer Tools -->
<svg height="800px" width="800px" version="1.1" id="Layer_1" xmlns="http://www.w3.org/2000/svg" xmlns:xlink="http://www.w3.org/1999/xlink" 
	 viewBox="0 0 512 512" xml:space="preserve">
<polygon style="fill:#CCCCCC;" points="77.766,59.707 59.797,77.857 138.656,156.716 156.716,138.656 "/>
<path style="fill:#37CC8F;" d="M408.126,370.47l-37.656,37.656c-2.343,2.343-6.141,2.343-8.484,0L335.64,381.78l45.823-46.459
	l26.664,26.664C410.469,364.329,410.469,368.127,408.126,370.47z"/>
<path style="fill:#2AA86F;" d="M408.126,370.47l-13.143,13.143l-22.401-22.401l17.386-17.386l18.159,18.159
	C410.469,364.329,410.469,368.127,408.126,370.47z"/>
<path style="fill:#CCCCCC;" d="M509.607,498.054L395.075,383.522l-11.553,11.553l114.533,114.533
	c1.595,1.595,3.686,2.393,5.776,2.393c2.09,0,4.182-0.797,5.776-2.393C512.798,506.418,512.798,501.244,509.607,498.054z"/>
<path style="fill:#37CC8F;" d="M133.505,23.115L23.115,133.506c-2.513,2.513-6.586,2.513-9.099,0L1.885,121.375
	c-2.513-2.513-2.513-6.586,0-9.099L112.276,1.886c2.513-2.513,6.586-2.513,9.099,0l12.13,12.13
	C136.018,16.529,136.018,20.602,133.505,23.115z"/>
<path style="fill:#2AA86F;" d="M133.506,23.114l-12.894,12.894l-21.23-21.23l12.895-12.893c2.513-2.513,6.586-2.513,9.099,0
	l12.13,12.13C136.019,16.528,136.019,20.602,133.506,23.114z"/>
<path id="SVGCleanerId_0" style="fill:#A2D8F4;" d="M81.257,192.262L192.262,81.258c2.343-2.343,6.141-2.343,8.484,0L422.399,302.91
	c2.343,2.343,2.343,6.141,0,8.484L311.395,422.4c-2.343,2.343-6.141,2.343-8.484,0L81.257,200.746
	C78.914,198.403,78.914,194.605,81.257,192.262z"/>
<g>
	<path id="SVGCleanerId_0_1_" style="fill:#A2D8F4;" d="M81.257,192.262L192.262,81.258c2.343-2.343,6.141-2.343,8.484,0
		L422.399,302.91c2.343,2.343,2.343,6.141,0,8.484L311.395,422.4c-2.343,2.343-6.141,2.343-8.484,0L81.257,200.746
		C78.914,198.403,78.914,194.605,81.257,192.262z"/>
</g>
<g>
	<path style="fill:#7FC7F0;" d="M179.061,94.458l13.201-13.201c2.343-2.343,6.141-2.343,8.484,0l221.653,221.653
		c2.343,2.343,2.343,6.141,0,8.484l-13.201,13.201L179.061,94.458z"/>
	<path style="fill:#7FC7F0;" d="M154.276,273.766l28.783-28.783c3.19-3.19,3.19-8.363,0-11.553c-3.19-3.19-8.363-3.19-11.553,0
		l-28.783,28.783l0,0L154.276,273.766L154.276,273.766z"/>
	<path style="fill:#7FC7F0;" d="M113.376,232.866L113.376,232.866l38.949-38.948c3.19-3.19,3.19-8.363,0-11.553
		c-3.189-3.19-8.362-3.19-11.553,0l-38.949,38.948l0,0L113.376,232.866z"/>
	<path style="fill:#7FC7F0;" d="M183.623,303.113l11.553,11.553l0,0l38.948-38.948c3.19-3.19,3.19-8.363,0-11.553
		c-3.19-3.19-8.363-3.19-11.553,0L183.623,303.113L183.623,303.113z"/>
	<path style="fill:#7FC7F0;" d="M315.925,357.518c3.19-3.19,3.19-8.363,0-11.553c-3.19-3.19-8.363-3.19-11.553,0l-38.949,38.949
		l11.553,11.553L315.925,357.518z"/>
	<path style="fill:#7FC7F0;" d="M264.86,315.23c-3.19-3.19-8.363-3.19-11.553,0l-28.783,28.783l0,0l11.553,11.553l0,0l28.783-28.783
		C268.05,323.593,268.05,318.42,264.86,315.23z"/>
</g>
</svg>